# xmcd CD database file
#
# Track frame offsets:
#	150
#	18165
#	28745
#	42475
#	58992
#	71900
#	82977
#	102262
#	109247
#	123105
#	134482
#	155127
#	170360
#
# Disc length: 2413 seconds
#
# Revision: 0
# Processed by: cddbd v1.5.1PL0 Copyright (c) Steve Scherf et al.
# Submitted via: CDex 1.51
#
DISCID=b5096b0d
DTITLE=Lucky Pierres - My Temptation
DYEAR=2000
DGENRE=Country
TTITLE0=Jacksboro Highway
TTITLE1=Together At Last
TTITLE2=Cheating Is Going Around
TTITLE3=Lay My Head Down
TTITLE4=Cheap Thrill
TTITLE5=Cry Or Bawl
TTITLE6=Never Turn Around
TTITLE7=Ridge Runner
TTITLE8=Night Before I Wed
TTITLE9=Stray
TTITLE10=You On Fire
TTITLE11=Right Or Wrong
TTITLE12=Till The End Of The World Rolls Round
EXTD=YEAR: 2000
EXTT0=
EXTT1=
EXTT2=
EXTT3=
EXTT4=
EXTT5=
EXTT6=
EXTT7=
EXTT8=
EXTT9=
EXTT10=
EXTT11=
EXTT12=
PLAYORDER=
